<?xml version="1.0" encoding="UTF-8"?>
<svg id="Layer_1" xmlns="http://www.w3.org/2000/svg" viewBox="0 0 152.45 50">
  <defs>
    <style>
      .cls-1 {
        fill: #162237;
      }

      .cls-2 {
        fill: #f05f3d;
      }
    </style>
  </defs>
  <path class="cls-2" d="M148.53,29.01h-16.49v5.01h11.84l-11.84,11.84,3.54,3.54,11.86-11.86v11.86h5.01v-16.59c0-2.1-1.76-3.8-3.92-3.8h0Z"/>
  <g>
    <g>
      <path class="cls-1" d="M0,19.1C0,16.12,2.27,14.92,4.96,14.35c3.84-.83,4.64-.97,4.64-1.95s-.77-1.55-2-1.55c-1.12,0-2.2.55-2.69,2.23L.46,11.6c1.03-3.44,4.04-4.61,7.3-4.61,4.35,0,6.64,2.09,6.64,5.81v5.67c0,2.61.2,3.75.52,5.01h-4.75c-.2-.51-.26-1.06-.26-1.66h-.06c-.8,1.38-2.58,2.15-4.35,2.15-2.75,0-5.5-1.57-5.5-4.87h0ZM6.97,20.34c1.66,0,2.67-1.29,2.67-2.75v-.97c-.8.23-2.46.63-2.89.74-1.03.29-1.49.86-1.49,1.6,0,.97.77,1.37,1.72,1.37h0Z"/>
      <path class="cls-1" d="M17.41,7.45h4.73v2.03h.06c1.43-1.77,2.92-2.49,4.81-2.49,4.41,0,6.84,3.87,6.84,8.39,0,5.47-3.52,8.59-7.22,8.59-2.26,0-3.67-1.14-4.44-2.17v6.02l-4.78,1.97V7.45h0ZM25.52,19.39c2,0,3.41-1.63,3.41-3.9s-1.4-3.92-3.41-3.92-3.44,1.63-3.44,3.92,1.4,3.9,3.44,3.9Z"/>
      <path class="cls-1" d="M54.86,2.44l4.78-1.87v22.92h-4.78V2.44Z"/>
      <path class="cls-1" d="M65.13,0c1.57,0,2.78,1.26,2.78,2.75,0,1.6-1.2,2.87-2.78,2.87s-2.84-1.26-2.84-2.87C62.29,1.26,63.5,0,65.13,0ZM62.69,7.45h4.78v16.04h-4.78V7.45Z"/>
      <path class="cls-1" d="M69.56,19.1c0-2.98,2.26-4.18,4.95-4.75,3.84-.83,4.64-.97,4.64-1.95s-.77-1.55-2-1.55c-1.12,0-2.2.55-2.69,2.23l-4.44-1.49c1.03-3.44,4.04-4.61,7.3-4.61,4.35,0,6.64,2.09,6.64,5.81v5.67c0,2.61.2,3.75.52,5.01h-4.75c-.2-.51-.26-1.06-.26-1.66h-.06c-.8,1.38-2.58,2.15-4.35,2.15-2.75,0-5.5-1.57-5.5-4.87h0ZM76.52,20.34c1.66,0,2.67-1.29,2.67-2.75v-.97c-.8.23-2.46.63-2.89.74-1.03.29-1.49.86-1.49,1.6,0,.97.77,1.37,1.72,1.37h0Z"/>
      <path class="cls-1" d="M86.97,7.45h4.73v2.09h.06c1.15-1.72,2.92-2.55,4.75-2.55,2.98,0,5.5,2.15,5.5,6.36v10.14h-4.78v-8.02c0-1.43,0-3.9-2.52-3.9-1.37,0-2.95.75-2.95,3.9v8.02h-4.78V7.45Z"/>
      <path class="cls-1" d="M104.09,15.5c0-5.27,3.64-8.51,8.31-8.51,3.67,0,6.62,2,7.71,5.16l-4.47,1.83c-.57-1.8-1.92-2.4-3.24-2.4-2,0-3.38,1.69-3.38,3.9,0,2.46,1.69,3.92,3.55,3.92,1.32,0,2.66-.69,3.32-2.4l4.5,1.83c-1.09,3.15-4.04,5.16-7.82,5.16-4.76,0-8.48-3.18-8.48-8.48h0Z"/>
      <path class="cls-1" d="M121.3,15.55c0-4.9,3.35-8.56,8.11-8.56,4.35,0,7.88,3.04,7.88,8.74v1.15h-11.23c.43,1.92,2.01,2.81,3.67,2.81,1.2,0,2.44-.57,3.07-2l4.5,1.83c-1,2.38-3.67,4.47-7.51,4.47-4.81,0-8.48-3.29-8.48-8.42h0ZM132.5,13.72c-.37-1.86-1.55-2.66-3.12-2.66-1.69,0-2.69,1.12-3.09,2.66h6.21Z"/>
      <path class="cls-1" d="M138.49,19.45l4.44-1.43c.69,1.69,1.77,2.06,2.64,2.06.8,0,1.55-.29,1.55-1.03,0-.89-1.03-1.2-1.86-1.46l-1.77-.54c-2.15-.66-4.24-1.97-4.24-4.81,0-3.09,2.52-5.24,6.3-5.24,3.38,0,5.64,1.75,6.3,4.1l-4.38,1.43c-.31-.89-.86-1.69-2-1.69-.86,0-1.43.46-1.43,1.09,0,.86,1.32,1.23,2.49,1.57l1.12.31c1.49.43,4.58,1.26,4.58,4.84,0,3.32-2.55,5.33-6.59,5.33s-6.42-1.8-7.13-4.53h0Z"/>
      <path class="cls-1" d="M43.12,41.46c0-5.36,3.27-8.45,7.16-8.45,2.29,0,3.67,1.09,4.44,2.18h.06v-6.7l4.78-1.9v17.9c0,2.67.2,3.75.51,5.01h-4.73c-.17-.77-.29-1.26-.26-1.6h-.06c-1.14,1.55-2.95,2.09-4.7,2.09-4.53,0-7.22-3.64-7.22-8.54h0ZM51.48,45.39c2.06,0,3.41-1.69,3.41-3.92s-1.4-3.9-3.44-3.9-3.41,1.6-3.41,3.9,1.35,3.92,3.44,3.92Z"/>
      <path class="cls-1" d="M65.14,26.02c1.57,0,2.78,1.26,2.78,2.75,0,1.6-1.2,2.87-2.78,2.87s-2.84-1.26-2.84-2.87c0-1.49,1.2-2.75,2.84-2.75ZM62.7,33.47h4.78v16.04h-4.78v-16.04Z"/>
      <path class="cls-1" d="M70.53,33.47h4.73v2.17h.11c.8-1.32,2.18-2.64,4.27-2.64.49,0,.89.06,1.46.26v5.39c-.69-.23-1.46-.29-1.95-.29-3.84,0-3.84,3.5-3.84,5.53v5.61h-4.78v-16.04h0Z"/>
      <path class="cls-1" d="M82.07,41.58c0-4.9,3.35-8.56,8.11-8.56,4.35,0,7.88,3.04,7.88,8.74v1.15h-11.23c.43,1.92,2,2.81,3.67,2.81,1.2,0,2.44-.57,3.07-2l4.5,1.83c-1,2.38-3.67,4.47-7.51,4.47-4.81,0-8.48-3.29-8.48-8.42h0ZM93.27,39.74c-.37-1.86-1.55-2.66-3.12-2.66-1.69,0-2.69,1.12-3.09,2.66h6.21Z"/>
      <path class="cls-1" d="M99.49,41.52c0-5.27,3.64-8.51,8.31-8.51,3.67,0,6.62,2,7.71,5.16l-4.47,1.83c-.57-1.8-1.92-2.4-3.24-2.4-2,0-3.38,1.69-3.38,3.9,0,2.46,1.69,3.92,3.55,3.92,1.32,0,2.66-.69,3.32-2.4l4.5,1.83c-1.09,3.15-4.04,5.16-7.82,5.16-4.76,0-8.48-3.18-8.48-8.48h0Z"/>
      <path class="cls-1" d="M118.01,44.3v-15.3h4.78v4.47h4.13v4.35h-4.13v4.7c0,1.4,0,3.12,2.15,3.12.77,0,1.46-.23,1.98-.43v4.24c-.8.4-1.86.54-2.98.54-5.93,0-5.93-4.12-5.93-5.7Z"/>
    </g>
    <path class="cls-1" d="M36.12,7.45h4.73v2.03h.06c1.43-1.77,2.92-2.49,4.81-2.49,4.41,0,6.84,3.87,6.84,8.39,0,5.47-3.52,8.59-7.22,8.59-2.26,0-3.67-1.14-4.44-2.17v6.02l-4.78,1.97V7.45h0ZM44.23,19.39c2,0,3.41-1.63,3.41-3.9s-1.4-3.92-3.41-3.92-3.44,1.63-3.44,3.92,1.4,3.9,3.44,3.9Z"/>
  </g>
</svg>