<svg width="46" height="32" viewBox="0 0 46 32" fill="none" xmlns="http://www.w3.org/2000/svg">
<rect x="0.5" y="0.5" width="45" height="31" rx="5.5" fill="white"/>
<path fill-rule="evenodd" clip-rule="evenodd" d="M12.6963 11.1244C12.3095 11.5936 11.6907 11.9636 11.0719 11.9108C10.9945 11.2764 11.2975 10.6023 11.652 10.186C12.0388 9.70357 12.7156 9.35993 13.2635 9.3335C13.328 9.99434 13.0766 10.642 12.6963 11.1244ZM13.257 12.0363C12.7118 12.0042 12.2144 12.2044 11.8126 12.3662C11.554 12.4702 11.3351 12.5584 11.1685 12.5584C10.9816 12.5584 10.7536 12.4655 10.4976 12.3613C10.1621 12.2247 9.77866 12.0685 9.3765 12.076C8.45472 12.0892 7.5974 12.6245 7.12684 13.477C6.15993 15.1819 6.87544 17.7063 7.81012 19.0941C8.26779 19.7814 8.8157 20.5347 9.53766 20.5083C9.85527 20.496 10.0837 20.3966 10.3202 20.2938C10.5924 20.1753 10.8752 20.0523 11.3168 20.0523C11.743 20.0523 12.0134 20.1721 12.273 20.2871C12.5198 20.3965 12.7569 20.5015 13.1088 20.4951C13.8565 20.4819 14.3271 19.8078 14.7847 19.1205C15.2786 18.3829 15.4957 17.663 15.5286 17.5538L15.5325 17.5411C15.5317 17.5403 15.5256 17.5375 15.5148 17.5324L15.5148 17.5324C15.3497 17.4549 14.0878 16.8626 14.0757 15.2744C14.0635 13.9414 15.0766 13.266 15.2361 13.1596L15.2361 13.1596C15.2458 13.1532 15.2523 13.1488 15.2553 13.1465C14.6107 12.1685 13.6051 12.0628 13.257 12.0363ZM18.4332 20.4224V10.1199H22.2042C24.1509 10.1199 25.511 11.4944 25.511 13.5034C25.511 15.5123 24.1251 16.9001 22.1526 16.9001H19.9932V20.4224H18.4332ZM19.9931 11.468H21.7915C23.1452 11.468 23.9187 12.2081 23.9187 13.51C23.9187 14.8119 23.1452 15.5586 21.785 15.5586H19.9931V11.468ZM30.6614 19.1866C30.2489 19.9928 29.34 20.5017 28.3602 20.5017C26.9098 20.5017 25.8978 19.6162 25.8978 18.2813C25.8978 16.9596 26.8776 16.1996 28.689 16.0873L30.6357 15.9683V15.4C30.6357 14.5607 30.1006 14.1048 29.1466 14.1048C28.3602 14.1048 27.7865 14.5211 27.6705 15.1555H26.2652C26.3104 13.8206 27.5351 12.8492 29.1917 12.8492C30.9773 12.8492 32.1376 13.8074 32.1376 15.2943V20.4224H30.6937V19.1866H30.6614ZM28.7791 19.2791C27.9476 19.2791 27.419 18.8694 27.419 18.2416C27.419 17.594 27.9282 17.2173 28.9016 17.1578L30.6356 17.0455V17.627C30.6356 18.5919 29.8362 19.2791 28.7791 19.2791ZM36.9269 20.8255C36.3017 22.6296 35.5862 23.2244 34.0649 23.2244C33.9489 23.2244 33.5621 23.2111 33.4719 23.1847V21.9489C33.5685 21.9622 33.807 21.9754 33.9295 21.9754C34.6192 21.9754 35.006 21.678 35.2445 20.9048L35.3863 20.4488L32.7435 12.9483H34.3743L36.2114 19.0346H36.2437L38.0808 12.9483H39.6665L36.9269 20.8255Z" fill="#18181B"/>
<rect x="0.5" y="0.5" width="45" height="31" rx="5.5" stroke="#E4E4E7"/>
</svg>
