<svg width="72" height="24" viewBox="0 0 72 24" fill="none" xmlns="http://www.w3.org/2000/svg">
<g clip-path="url(#clip0_156_3083)">
<mask id="mask0_156_3083" style="mask-type:luminance" maskUnits="userSpaceOnUse" x="0" y="0" width="72" height="24">
<path d="M71.7415 0H0.258301V24H71.7415V0Z" fill="white"/>
</mask>
<g mask="url(#mask0_156_3083)">
<mask id="mask1_156_3083" style="mask-type:luminance" maskUnits="userSpaceOnUse" x="0" y="0" width="72" height="24">
<path d="M71.7415 0H0.258301V24H71.7415V0Z" fill="white"/>
</mask>
<g mask="url(#mask1_156_3083)">
<g opacity="0.68">
<mask id="mask2_156_3083" style="mask-type:luminance" maskUnits="userSpaceOnUse" x="0" y="0" width="21" height="24">
<path d="M20.5975 0H0.258301V24H20.5975V0Z" fill="white"/>
</mask>
<g mask="url(#mask2_156_3083)">
<path d="M18.5878 6.0976C18.8806 4.2304 18.5878 2.96 17.5766 1.8096C16.4638 0.5424 14.4558 2.99063e-08 11.8862 2.99063e-08H4.42696C4.17272 -6.01309e-05 3.92681 0.0906481 3.7335 0.255793C3.5402 0.420937 3.4122 0.649667 3.37256 0.9008L0.266162 20.5968C0.25171 20.6882 0.257231 20.7816 0.282344 20.8706C0.307458 20.9596 0.351567 21.0421 0.411635 21.1124C0.471702 21.1828 0.5463 21.2392 0.630291 21.278C0.714282 21.3167 0.80567 21.3368 0.898162 21.3368H5.50376L5.18376 23.352C5.17104 23.432 5.17581 23.5137 5.19773 23.5917C5.21966 23.6696 5.25822 23.7419 5.31077 23.8034C5.36331 23.865 5.42859 23.9145 5.5021 23.9484C5.57561 23.9824 5.6556 24 5.73656 24H9.61816C9.84057 24.0001 10.0557 23.9207 10.2248 23.7762C10.3939 23.6318 10.5059 23.4317 10.5406 23.212L10.579 23.0144L11.3102 18.3744L11.3574 18.1184C11.392 17.8987 11.504 17.6986 11.6731 17.5542C11.8422 17.4097 12.0574 17.3303 12.2798 17.3304H12.8606C16.6206 17.3304 19.5654 15.8024 20.4254 11.3848C20.7846 9.5384 20.599 7.9976 19.6486 6.9144C19.3475 6.5785 18.9874 6.30058 18.5862 6.0944" fill="white"/>
</g>
</g>
<g opacity="0.7">
<mask id="mask3_156_3083" style="mask-type:luminance" maskUnits="userSpaceOnUse" x="0" y="0" width="19" height="22">
<path d="M18.6951 0H0.258301V21.3368H18.6951V0Z" fill="white"/>
</mask>
<g mask="url(#mask3_156_3083)">
<path d="M18.5878 6.0976C18.8806 4.2304 18.5878 2.96 17.5766 1.8096C16.4638 0.5424 14.4558 2.99063e-08 11.8862 2.99063e-08H4.42696C4.17272 -6.01309e-05 3.92681 0.0906481 3.7335 0.255793C3.5402 0.420937 3.4122 0.649667 3.37256 0.9008L0.266162 20.5968C0.25171 20.6882 0.257231 20.7816 0.282344 20.8706C0.307458 20.9596 0.351567 21.0421 0.411635 21.1124C0.471702 21.1828 0.5463 21.2392 0.630291 21.278C0.714282 21.3167 0.80567 21.3368 0.898162 21.3368H5.50376L6.65816 14L6.62216 14.2304C6.66093 13.9796 6.78812 13.7509 6.98076 13.5857C7.1734 13.4205 7.41878 13.3297 7.67256 13.3296H9.86136C14.1598 13.3296 17.5254 11.5832 18.5086 6.5296C18.5382 6.38 18.563 6.2352 18.5886 6.0928" fill="white"/>
</g>
</g>
<path d="M7.90296 6.1224C7.93749 5.90264 8.04943 5.70246 8.21856 5.55797C8.3877 5.41347 8.60291 5.33418 8.82536 5.3344H14.6726C15.3182 5.3302 15.9632 5.37728 16.6014 5.4752C16.7699 5.5024 16.9339 5.5336 17.0934 5.5688C17.2528 5.604 17.4075 5.64347 17.5574 5.6872C17.6326 5.70907 17.7062 5.732 17.7782 5.756C18.0565 5.84718 18.3268 5.96145 18.5862 6.0976C18.879 4.2304 18.5862 2.96 17.575 1.8096C16.4638 0.5424 14.4558 2.99063e-08 11.8862 2.99063e-08H4.42696C4.17272 -6.01309e-05 3.92681 0.0906481 3.7335 0.255793C3.5402 0.420937 3.4122 0.649667 3.37256 0.9008L0.266162 20.5968C0.25171 20.6882 0.257231 20.7816 0.282344 20.8706C0.307458 20.9596 0.351567 21.0421 0.411635 21.1124C0.471702 21.1828 0.5463 21.2392 0.630291 21.278C0.714282 21.3167 0.80567 21.3368 0.898162 21.3368H5.50376L6.65816 14L7.90296 6.1224Z" fill="white"/>
<path d="M50.6145 12.3342C50.6288 12.2427 50.6753 12.1592 50.7457 12.0989C50.8161 12.0386 50.9058 12.0055 50.9984 12.0054H54.5984C55.2748 11.9752 55.9492 12.0991 56.5706 12.3677C57.192 12.6364 57.7442 13.0429 58.1855 13.5563C58.6268 14.0698 58.9455 14.6769 59.1177 15.3316C59.2898 15.9864 59.3109 16.6717 59.1793 17.3358C58.9046 18.8077 58.1324 20.1405 56.9922 21.1109C55.852 22.0813 54.4129 22.6304 52.916 22.6662H49.2513C49.2188 22.6659 49.1867 22.6586 49.1573 22.6449C49.1279 22.6311 49.1018 22.6112 49.0807 22.5865C49.0596 22.5618 49.0441 22.5328 49.0351 22.5016C49.0262 22.4703 49.0241 22.4376 49.0289 22.4054L50.6145 12.3342ZM52.1224 20.3198H52.7449C53.6046 20.3661 54.4498 20.0836 55.1088 19.5296C55.7679 18.9756 56.1915 18.1916 56.2937 17.3366C56.5905 15.4278 55.5017 14.3534 53.7209 14.3534H53.264C53.2101 14.3535 53.1579 14.3728 53.1169 14.4078C53.0758 14.4429 53.0486 14.4914 53.04 14.5446L52.1224 20.3198Z" fill="white"/>
<path d="M45.9545 14.6808L45.7241 16.1344H48.5833C48.616 16.1345 48.6483 16.1417 48.678 16.1554C48.7077 16.1691 48.7341 16.189 48.7553 16.2139C48.7766 16.2387 48.7923 16.2678 48.8012 16.2993C48.8102 16.3307 48.8123 16.3637 48.8073 16.396L48.5321 18.156C48.518 18.2478 48.4715 18.3314 48.4011 18.3919C48.3307 18.4523 48.2409 18.4856 48.1481 18.4856H45.6873C45.595 18.4856 45.5056 18.5184 45.4353 18.5782C45.3649 18.638 45.3181 18.7209 45.3033 18.812L45.0593 20.3232H48.0881C48.1208 20.3233 48.1531 20.3305 48.1828 20.3442C48.2125 20.3579 48.2389 20.3778 48.2601 20.4027C48.2814 20.4275 48.297 20.4566 48.306 20.4881C48.315 20.5195 48.3171 20.5525 48.3121 20.5848L48.0369 22.3448C48.0226 22.4364 47.9761 22.5199 47.9057 22.5802C47.8353 22.6404 47.7456 22.6736 47.6529 22.6736H42.1857C42.1529 22.6736 42.1206 22.6664 42.0908 22.6526C42.0611 22.6389 42.0347 22.6189 42.0134 22.5939C41.9921 22.569 41.9765 22.5398 41.9676 22.5082C41.9586 22.4767 41.9566 22.4436 41.9617 22.4112L43.5505 12.3408C43.5647 12.2491 43.6111 12.1655 43.6816 12.105C43.752 12.0446 43.8417 12.0113 43.9345 12.0112H49.4025C49.4353 12.0113 49.4677 12.0184 49.4974 12.0322C49.5272 12.046 49.5536 12.066 49.5749 12.0909C49.5962 12.1158 49.6118 12.1451 49.6207 12.1766C49.6296 12.2082 49.6316 12.2412 49.6265 12.2736L49.3513 14.0336C49.337 14.1252 49.2905 14.2087 49.2201 14.269C49.1497 14.3292 49.06 14.3624 48.9673 14.3624H46.3369C46.2443 14.3624 46.1548 14.3955 46.0844 14.4556C46.014 14.5157 45.9674 14.599 45.9529 14.6904" fill="white"/>
<path d="M61.597 22.6672H59.4233C59.3904 22.6674 59.3579 22.6605 59.3279 22.647C59.2979 22.6334 59.2713 22.6135 59.2497 22.5886C59.2282 22.5638 59.2123 22.5345 59.2032 22.5029C59.1941 22.4713 59.192 22.4381 59.197 22.4055L60.7857 12.3352C60.8001 12.2436 60.8466 12.1601 60.917 12.0998C60.9874 12.0395 61.0771 12.0064 61.1698 12.0063H63.3433C63.3761 12.0064 63.4085 12.0136 63.4382 12.0273C63.468 12.0411 63.4944 12.0611 63.5157 12.086C63.537 12.111 63.5526 12.1402 63.5615 12.1717C63.5704 12.2033 63.5724 12.2364 63.5673 12.2687L61.9777 22.3391C61.9633 22.4306 61.9166 22.5139 61.8462 22.574C61.7759 22.6341 61.6863 22.6671 61.5938 22.6672" fill="white"/>
<path d="M41.2039 22.6673H38.3568C38.2973 22.6673 38.2391 22.6504 38.1889 22.6187C38.1386 22.587 38.0984 22.5417 38.0727 22.4881L36.1928 18.5681H36.1648L35.5568 22.4033C35.545 22.4774 35.5071 22.5448 35.4501 22.5935C35.3931 22.6422 35.3205 22.6689 35.2456 22.6689H33.0055C32.9728 22.6689 32.9404 22.6617 32.9107 22.648C32.8809 22.6342 32.8545 22.6142 32.8332 22.5892C32.8119 22.5643 32.7963 22.5351 32.7874 22.5035C32.7785 22.472 32.7765 22.4389 32.7815 22.4065L34.3815 12.2737C34.3932 12.1994 34.4311 12.1317 34.4883 12.0828C34.5455 12.034 34.6183 12.0072 34.6935 12.0073H38.5672C40.6736 12.0073 42.1159 13.0113 41.7623 15.2873C41.6705 16.0218 41.349 16.7085 40.8437 17.2494C40.3385 17.7902 39.6753 18.1577 38.9487 18.2993L41.3976 22.3233C41.4184 22.3577 41.4297 22.397 41.4303 22.4372C41.431 22.4774 41.4209 22.5171 41.4013 22.5522C41.3816 22.5872 41.3529 22.6164 41.3183 22.6368C41.2836 22.6572 41.2442 22.6672 41.2039 22.6673ZM36.4471 16.7865H36.7159C37.6207 16.7865 38.6616 16.6161 38.8512 15.4577C39.0408 14.2993 38.4367 14.1321 37.4696 14.1289H37.0768C37.019 14.1282 36.9629 14.1484 36.9188 14.1857C36.8748 14.2231 36.8456 14.275 36.8367 14.3321L36.4471 16.7865Z" fill="white"/>
<path d="M67.4742 22.6671H65.3014C65.2686 22.667 65.2362 22.6598 65.2065 22.6461C65.1767 22.6323 65.1503 22.6123 65.129 22.5874C65.1077 22.5625 65.0921 22.5332 65.0832 22.5017C65.0743 22.4701 65.0723 22.437 65.0774 22.4047L66.351 14.3535H64.3254C64.2926 14.3534 64.2602 14.3462 64.2305 14.3325C64.2007 14.3187 64.1743 14.2987 64.153 14.2738C64.1318 14.2488 64.1161 14.2196 64.1072 14.1881C64.0983 14.1565 64.0963 14.1234 64.1014 14.0911L64.3766 12.3311C64.3907 12.2393 64.4372 12.1557 64.5076 12.0952C64.578 12.0348 64.6678 12.0015 64.7606 12.0015H71.5134C71.5461 12.0015 71.5784 12.0087 71.608 12.0224C71.6377 12.0361 71.6641 12.0561 71.6854 12.0809C71.7066 12.1057 71.7223 12.1349 71.7313 12.1663C71.7402 12.1977 71.7423 12.2307 71.7374 12.2631L71.4622 14.0231C71.4479 14.1146 71.4013 14.1981 71.3309 14.2584C71.2605 14.3187 71.1709 14.3518 71.0782 14.3519H69.1206L67.8574 22.3375C67.8429 22.4289 67.7963 22.5122 67.7259 22.5723C67.6555 22.6324 67.566 22.6655 67.4734 22.6655" fill="white"/>
<path d="M32.9264 15.0351C32.9195 15.0796 32.9001 15.1214 32.8705 15.1554C32.8409 15.1895 32.8022 15.2145 32.7591 15.2277C32.7159 15.2408 32.6699 15.2414 32.6263 15.2296C32.5828 15.2177 32.5434 15.1938 32.5128 15.1607C32.2583 14.9153 31.9574 14.7231 31.6277 14.5954C31.2981 14.4677 30.9462 14.4069 30.5928 14.4167C29.7804 14.4338 29.0008 14.7407 28.3947 15.282C27.7885 15.8232 27.3958 16.5633 27.2872 17.3687C27.1942 17.7267 27.1882 18.1018 27.2696 18.4627C27.351 18.8235 27.5176 19.1597 27.7554 19.4431C27.9931 19.7265 28.2952 19.9489 28.6364 20.0918C28.9776 20.2348 29.3481 20.294 29.7168 20.2647C30.4711 20.2451 31.201 19.9937 31.8072 19.5447C31.8459 19.5171 31.8919 19.5016 31.9393 19.5002C31.9868 19.4988 32.0336 19.5114 32.0738 19.5366C32.1141 19.5618 32.146 19.5983 32.1654 19.6416C32.1849 19.6849 32.1911 19.733 32.1832 19.7799L31.788 22.2191C31.7765 22.2902 31.745 22.3567 31.6973 22.4108C31.6496 22.4648 31.5876 22.5043 31.5184 22.5247C30.7832 22.781 30.0134 22.9247 29.2352 22.9511C24.64 22.9511 23.9048 19.0255 24.1416 17.3567C24.2981 15.7116 25.1008 14.1957 26.3735 13.1417C27.6462 12.0877 29.285 11.5815 30.9304 11.7343C31.6397 11.7553 32.3414 11.8864 33.0104 12.1231C33.1133 12.1623 33.1996 12.2357 33.2548 12.3309C33.31 12.4262 33.3308 12.5375 33.3136 12.6463L32.9264 15.0351Z" fill="white"/>
<path d="M46.7303 1.33364H44.3303C44.2508 1.33362 44.1739 1.36198 44.1135 1.4136C44.0531 1.46523 44.0131 1.53673 44.0007 1.61524L43.0303 7.77044C43.0258 7.79899 43.0275 7.82818 43.0354 7.856C43.0432 7.88382 43.057 7.9096 43.0758 7.93158C43.0946 7.95355 43.1179 7.97119 43.1441 7.98329C43.1704 7.99538 43.199 8.00164 43.2279 8.00164H44.4599C44.5154 8.00157 44.5691 7.98172 44.6113 7.94566C44.6535 7.9096 44.6815 7.85967 44.6903 7.80484L44.9655 6.06004C44.9779 5.98153 45.0179 5.91003 45.0783 5.8584C45.1387 5.80678 45.2156 5.77842 45.2951 5.77844H46.0543C46.3848 5.81515 46.7193 5.78463 47.0378 5.68873C47.3562 5.59283 47.6519 5.43353 47.9072 5.2204C48.1625 5.00726 48.372 4.74471 48.5233 4.44851C48.6745 4.15232 48.7642 3.8286 48.7871 3.49684C48.8536 3.23195 48.8607 2.9556 48.8077 2.68767C48.7547 2.41973 48.643 2.16686 48.4807 1.94724C48.2502 1.72529 47.9747 1.55561 47.6728 1.44972C47.3708 1.34384 47.0489 1.30425 46.7303 1.33364ZM47.0079 3.58164C46.8767 4.44324 46.2183 4.44324 45.5823 4.44324H45.2199L45.4743 2.83444C45.4817 2.78738 45.5057 2.74451 45.5419 2.71357C45.5782 2.68262 45.6242 2.66563 45.6719 2.66564H45.8383C46.2711 2.66564 46.6807 2.66564 46.8919 2.91284C46.9592 3.00893 47.0046 3.11865 47.0247 3.23423C47.0449 3.34981 47.0394 3.46841 47.0087 3.58164" fill="white"/>
<path d="M29.6087 1.33346H27.2087C27.1292 1.33344 27.0524 1.3618 26.9919 1.41342C26.9315 1.46505 26.8915 1.53655 26.8791 1.61506L25.9087 7.77026C25.9042 7.79881 25.9059 7.82801 25.9138 7.85582C25.9216 7.88364 25.9354 7.90943 25.9542 7.9314C25.973 7.95338 25.9963 7.97102 26.0226 7.98311C26.0488 7.99521 26.0774 8.00147 26.1063 8.00146H27.2527C27.3322 8.00148 27.4091 7.97312 27.4695 7.9215C27.5299 7.86987 27.5699 7.79837 27.5823 7.71986L27.8439 6.05906C27.8563 5.98056 27.8963 5.90905 27.9567 5.85742C28.0171 5.8058 28.094 5.77744 28.1735 5.77746H28.9335C29.264 5.81417 29.5986 5.78366 29.917 5.68776C30.2354 5.59186 30.5312 5.43255 30.7864 5.21942C31.0417 5.00629 31.2513 4.74373 31.4025 4.44754C31.5537 4.15134 31.6434 3.82763 31.6663 3.49586C31.7329 3.23097 31.7399 2.95463 31.6869 2.68669C31.6339 2.41875 31.5223 2.16588 31.3599 1.94626C31.1295 1.72432 30.8539 1.55463 30.552 1.44875C30.2501 1.34286 29.9289 1.30327 29.6103 1.33266M29.8871 3.58066C29.7559 4.44226 29.0975 4.44226 28.4615 4.44226H28.0991L28.3535 2.83346C28.3609 2.7864 28.3849 2.74354 28.4212 2.71259C28.4574 2.68165 28.5035 2.66465 28.5511 2.66466H28.7175C29.1503 2.66466 29.5599 2.66466 29.7711 2.91186C29.8384 3.00795 29.8838 3.11768 29.904 3.23326C29.9241 3.34883 29.9187 3.46744 29.8879 3.58066" fill="white"/>
<path d="M36.7839 3.55424H35.6343C35.5866 3.55422 35.5406 3.57122 35.5043 3.60217C35.4681 3.63311 35.4441 3.67597 35.4367 3.72303L35.3863 4.04304L35.3063 3.92624C35.1313 3.74768 34.9178 3.61158 34.682 3.52837C34.4463 3.44517 34.1946 3.41707 33.9463 3.44624C33.3123 3.45921 32.7041 3.69998 32.233 4.12451C31.7619 4.54904 31.4593 5.12897 31.3807 5.75824C31.3201 6.0661 31.327 6.38345 31.4009 6.68839C31.4748 6.99334 31.6139 7.27864 31.8087 7.52464C31.9906 7.72464 32.2152 7.88108 32.4659 7.98232C32.7166 8.08357 32.9869 8.12701 33.2567 8.10944C33.5525 8.11239 33.8459 8.05568 34.1193 7.9427C34.3927 7.82971 34.6405 7.66276 34.8479 7.45184L34.7967 7.77184C34.7922 7.80039 34.7939 7.82958 34.8018 7.8574C34.8096 7.88522 34.8234 7.911 34.8422 7.93298C34.861 7.95495 34.8843 7.97259 34.9106 7.98469C34.9368 7.99678 34.9654 8.00304 34.9943 8.00304H36.0295C36.109 8.00305 36.1858 7.9747 36.2463 7.92307C36.3067 7.87145 36.3467 7.79994 36.3591 7.72144L36.9807 3.78624C36.9852 3.75768 36.9835 3.72849 36.9756 3.70067C36.9677 3.67285 36.9539 3.64707 36.9352 3.62509C36.9164 3.60312 36.8931 3.58548 36.8668 3.57338C36.8406 3.56129 36.812 3.55503 36.7831 3.55504M35.1831 5.79504C35.1385 6.10506 34.9819 6.388 34.7427 6.59027C34.5036 6.79255 34.1986 6.90013 33.8855 6.89264C33.7415 6.90776 33.5959 6.88754 33.4615 6.83372C33.3271 6.7799 33.2078 6.69411 33.114 6.58377C33.0202 6.47344 32.9548 6.3419 32.9233 6.20056C32.8919 6.05921 32.8954 5.91233 32.9335 5.77264C32.9774 5.4634 33.1322 5.18068 33.3692 4.97725C33.6062 4.77381 33.9092 4.66355 34.2215 4.66704C34.3645 4.65937 34.5074 4.68352 34.6399 4.73775C34.7724 4.79198 34.8913 4.87493 34.9879 4.98064C35.0778 5.09367 35.1418 5.225 35.1755 5.36541C35.2092 5.50583 35.2118 5.65192 35.1831 5.79344" fill="white"/>
<path d="M53.9055 3.55432H52.7559C52.7082 3.55431 52.6621 3.5713 52.6259 3.60225C52.5897 3.63319 52.5657 3.67606 52.5583 3.72312L52.5079 4.04312L52.4279 3.92632C52.253 3.74766 52.0394 3.61149 51.8037 3.52828C51.5679 3.44507 51.3162 3.41703 51.0679 3.44632C50.4338 3.45929 49.8257 3.70006 49.3546 4.12459C48.8835 4.54913 48.5809 5.12905 48.5023 5.75832C48.4417 6.06618 48.4486 6.38353 48.5225 6.68848C48.5964 6.99342 48.7355 7.27872 48.9303 7.52472C49.1122 7.72472 49.3368 7.88116 49.5875 7.98241C49.8382 8.08365 50.1085 8.1271 50.3783 8.10952C50.6741 8.11247 50.9674 8.05576 51.2408 7.94278C51.5142 7.82979 51.7621 7.66284 51.9695 7.45192L51.9183 7.77192C51.9138 7.80047 51.9155 7.82966 51.9234 7.85748C51.9312 7.8853 51.945 7.91108 51.9638 7.93306C51.9826 7.95503 52.0059 7.97267 52.0321 7.98477C52.0584 7.99686 52.087 8.00312 52.1159 8.00312H53.1511C53.2305 8.00313 53.3074 7.97478 53.3678 7.92315C53.4283 7.87153 53.4683 7.80002 53.4807 7.72152L54.1023 3.78632C54.1068 3.75776 54.105 3.72857 54.0972 3.70075C54.0893 3.67293 54.0755 3.64715 54.0568 3.62517C54.038 3.6032 54.0146 3.58556 53.9884 3.57346C53.9621 3.56137 53.9336 3.55511 53.9047 3.55512M52.3047 5.79512C52.2601 6.10514 52.1035 6.38808 51.8643 6.59035C51.6252 6.79263 51.3202 6.90021 51.0071 6.89272C50.8631 6.90784 50.7175 6.88762 50.5831 6.8338C50.4487 6.77998 50.3294 6.69419 50.2356 6.58386C50.1418 6.47352 50.0764 6.34198 50.0449 6.20064C50.0134 6.05929 50.0169 5.91241 50.0551 5.77272C50.0989 5.46348 50.2538 5.18076 50.4908 4.97733C50.7278 4.77389 51.0308 4.66363 51.3431 4.66712C51.4861 4.65945 51.629 4.6836 51.7615 4.73783C51.894 4.79206 52.0129 4.87501 52.1095 4.98072C52.1993 5.09375 52.2634 5.22508 52.2971 5.36549C52.3308 5.50591 52.3334 5.652 52.3047 5.79352" fill="white"/>
<path d="M42.9062 3.55838H41.751C41.6965 3.5584 41.6429 3.57175 41.5948 3.59727C41.5467 3.62279 41.5056 3.6597 41.475 3.70478L39.8814 6.05118L39.2062 3.79518C39.186 3.72596 39.1438 3.66516 39.0862 3.6219C39.0285 3.57863 38.9583 3.55522 38.8862 3.55518H37.7502C37.7183 3.55511 37.6869 3.56266 37.6586 3.5772C37.6302 3.59174 37.6057 3.61284 37.5872 3.63874C37.5686 3.66465 37.5566 3.69461 37.5519 3.72614C37.5473 3.75766 37.5503 3.78983 37.5606 3.81998L38.8326 7.55438L37.6326 9.24318C37.6114 9.27289 37.5988 9.30782 37.5961 9.34419C37.5933 9.38057 37.6006 9.417 37.6171 9.44954C37.6336 9.48209 37.6586 9.5095 37.6895 9.52883C37.7205 9.54815 37.7561 9.55865 37.7926 9.55918H38.947C39.0009 9.55925 39.054 9.54627 39.1018 9.52133C39.1496 9.49639 39.1906 9.46024 39.2214 9.41598L43.0614 3.87118C43.0823 3.84114 43.0946 3.80593 43.0969 3.76938C43.0993 3.73284 43.0915 3.69636 43.0745 3.66392C43.0575 3.63149 43.0319 3.60435 43.0005 3.58545C42.9692 3.56656 42.9332 3.55664 42.8966 3.55678" fill="white"/>
<path d="M55.2605 1.50261L54.2749 7.77061C54.2704 7.79916 54.2721 7.82835 54.28 7.85617C54.2878 7.88399 54.3016 7.90978 54.3204 7.93175C54.3392 7.95372 54.3625 7.97137 54.3888 7.98346C54.415 7.99556 54.4436 8.00181 54.4725 8.00181H55.4637C55.5432 8.00183 55.6201 7.97347 55.6805 7.92184C55.7409 7.87022 55.7809 7.79871 55.7933 7.72021L56.7645 1.56421C56.769 1.53566 56.7673 1.50646 56.7594 1.47864C56.7516 1.45083 56.7378 1.42504 56.719 1.40307C56.7002 1.38109 56.6769 1.36345 56.6506 1.35135C56.6244 1.33926 56.5958 1.333 56.5669 1.33301H55.4573C55.4097 1.333 55.3636 1.34999 55.3274 1.38094C55.2911 1.41189 55.2671 1.45475 55.2597 1.50181" fill="white"/>
</g>
</g>
</g>
<defs>
<clipPath id="clip0_156_3083">
<rect width="71.4832" height="24" fill="white" transform="translate(0.258301)"/>
</clipPath>
</defs>
</svg>
