<svg width="46" height="32" viewBox="0 0 46 32" fill="none" xmlns="http://www.w3.org/2000/svg">
<rect x="0.5" y="0.5" width="45" height="31" rx="3.5" fill="white"/>
<path fill-rule="evenodd" clip-rule="evenodd" d="M19.4855 24.5979L19.7798 22.6657L19.1242 22.6499H15.9937L18.1693 8.39176C18.1761 8.34858 18.198 8.3085 18.23 8.27999C18.2621 8.25148 18.3031 8.23584 18.346 8.23584H23.6246C25.3772 8.23584 26.5866 8.61269 27.2179 9.35661C27.5139 9.7056 27.7024 10.0704 27.7937 10.4717C27.8894 10.8928 27.891 11.396 27.7976 12.0097L27.7909 12.0543V12.4476L28.0869 12.621C28.3361 12.7577 28.5343 12.9141 28.6862 13.0932C28.9394 13.3916 29.1032 13.7709 29.1724 14.2204C29.2439 14.6828 29.2203 15.2332 29.1032 15.8562C28.9681 16.5728 28.7497 17.1969 28.4548 17.7076C28.1837 18.1781 27.8382 18.5685 27.4278 18.8709C27.0361 19.1583 26.5708 19.3764 26.0446 19.516C25.5347 19.6532 24.9533 19.7225 24.3157 19.7225H23.9049C23.6112 19.7225 23.3259 19.8318 23.1019 20.0278C22.8773 20.2279 22.7288 20.5013 22.6833 20.8002L22.6522 20.9742L22.1322 24.3799L22.1087 24.5048C22.1024 24.5444 22.0917 24.5641 22.0759 24.5775C22.0619 24.5897 22.0417 24.5979 22.022 24.5979H19.4855Z" fill="#28356A"/>
<path fill-rule="evenodd" clip-rule="evenodd" d="M28.3678 12.0996C28.3522 12.2037 28.334 12.3101 28.3139 12.4194C27.6178 16.1136 25.2361 17.3898 22.1944 17.3898H20.6457C20.2737 17.3898 19.9601 17.6689 19.9023 18.0482L18.8848 24.7192C18.8471 24.9683 19.0328 25.1927 19.2758 25.1927H22.0227C22.3479 25.1927 22.6243 24.9485 22.6755 24.6169L22.7025 24.4727L23.2196 21.0804L23.2529 20.8944C23.3035 20.5617 23.5805 20.3173 23.9057 20.3173H24.3165C26.9778 20.3173 29.0612 19.2006 29.6701 15.9688C29.9244 14.6188 29.7928 13.4915 29.1197 12.6987C28.916 12.4597 28.6633 12.2612 28.3678 12.0996Z" fill="#298FC2"/>
<path fill-rule="evenodd" clip-rule="evenodd" d="M27.6392 11.7997C27.5328 11.7676 27.4231 11.7386 27.3106 11.7124C27.1974 11.6868 27.0815 11.6642 26.9622 11.6443C26.5446 11.5746 26.087 11.5415 25.597 11.5415H21.4596C21.3576 11.5415 21.2608 11.5653 21.1743 11.6083C20.9834 11.7031 20.8417 11.8898 20.8073 12.1184L19.9271 17.8805L19.9019 18.0484C19.9597 17.6692 20.2732 17.3901 20.6453 17.3901H22.194C25.2357 17.3901 27.6173 16.1132 28.3134 12.4197C28.3342 12.3104 28.3517 12.204 28.3674 12.0999C28.1913 12.0032 28.0005 11.9206 27.7951 11.8502C27.7444 11.8328 27.6921 11.816 27.6392 11.7997Z" fill="#22284F"/>
<path fill-rule="evenodd" clip-rule="evenodd" d="M20.8073 12.1183C20.8417 11.8897 20.9834 11.703 21.1743 11.6089C21.2615 11.5657 21.3576 11.5419 21.4596 11.5419H25.597C26.0871 11.5419 26.5447 11.5751 26.9623 11.6449C27.0816 11.6646 27.1975 11.6874 27.3106 11.713C27.4232 11.739 27.5329 11.7682 27.6393 11.8001C27.6921 11.8164 27.7444 11.8334 27.7957 11.8502C28.0011 11.9205 28.192 12.0038 28.368 12.0998C28.5752 10.7346 28.3663 9.8051 27.6522 8.96342C26.8648 8.0367 25.4439 7.64014 23.6257 7.64014H18.3469C17.9755 7.64014 17.6586 7.91923 17.6013 8.29917L15.4026 22.704C15.3593 22.9889 15.5719 23.246 15.85 23.246H19.1089L20.8073 12.1183Z" fill="#28356A"/>
<rect x="0.5" y="0.5" width="45" height="31" rx="3.5" stroke="#E4E4E7"/>
</svg>
