<svg xmlns="http://www.w3.org/2000/svg" xmlns:xlink="http://www.w3.org/1999/xlink" width="45" height="45" viewBox="0 0 45 45" fill="#505050">
  <defs>
    <clipPath id="clip-path">
      <rect id="Rectangle_511" data-name="Rectangle 511" width="45" height="45"/>
    </clipPath>
  </defs>
  <g id="Icons_-_.icon-finance" data-name="Icons - .icon-finance" clip-path="url(#clip-path)">
    <g id="Group_575" data-name="Group 575" transform="translate(0.791 0.791)">
      <path id="Path_233" data-name="Path 233" d="M22.849,44.053a24.822,24.822,0,0,1-8.2,1.211c-6.513,0-11.048-1.838-11.048-3.488V39.769c2.084,1.692,6.664,2.588,11.048,2.588a30.106,30.106,0,0,0,6.365-.655c-.208-.332-.407-.669-.59-1.017a.357.357,0,0,1-.022-.033,29.052,29.052,0,0,1-5.753.543C8.14,41.2,3.605,39.356,3.605,37.7H2.44v4l.084.653c.756,2.65,6.6,4.069,12.13,4.069a25.524,25.524,0,0,0,9.119-1.5c-.319-.281-.629-.573-.924-.879" transform="translate(-2.439 -2.965)"/>
      <path id="Path_234" data-name="Path 234" d="M27.64,15.816c5.529,0,11.377-1.423,12.129-4.071l.085-.5V7.091c0-3.018-6.295-4.651-12.214-4.651S15.427,4.072,15.427,7.091v4.156l.088.5c.748,2.648,6.6,4.071,12.125,4.071m0-12.213c6.513,0,11.051,1.837,11.051,3.488s-4.538,3.491-11.05,3.491S16.59,8.742,16.59,7.091,21.132,3.6,27.641,3.6M16.59,9.16c2.09,1.689,6.667,2.586,11.051,2.586s8.964-.9,11.051-2.586v2.006c0,1.648-4.538,3.486-11.051,3.486S16.59,12.813,16.59,11.166Z" transform="translate(-2.633 -2.44)"/>
      <path id="Path_235" data-name="Path 235" d="M16.59,18.9v-2c2.09,1.69,6.667,2.586,11.051,2.586.872,0,1.749-.046,2.614-.118a14.35,14.35,0,0,0,2.94-.378,12.862,12.862,0,0,0,5.5-2.09v2a1.349,1.349,0,0,1-.407.857c.383.13.763.269,1.131.433a2.514,2.514,0,0,0,.354-.706l.085-.575V14.834H38.691c0,1.65-4.538,3.489-11.051,3.489S16.59,16.484,16.59,14.834H15.427v4.078l.088.575c.548,1.942,3.846,3.224,7.742,3.768A14.538,14.538,0,0,1,24.4,22.231c-4.721-.483-7.813-1.967-7.813-3.329" transform="translate(-2.633 -2.622)"/>
      <path id="Path_236" data-name="Path 236" d="M38.555,19.934c.383.131.766.276,1.135.439.028-.035.045-.074.07-.105-.369-.164-.748-.3-1.131-.432-.028.032-.042.067-.074.1" transform="translate(-2.978 -2.697)"/>
      <path id="Path_237" data-name="Path 237" d="M19.178,37.163a30.908,30.908,0,0,1-4.527.319C8.138,37.482,3.6,35.644,3.6,33.993v-2c2.084,1.691,6.664,2.585,11.048,2.585a32.459,32.459,0,0,0,4.131-.273c-.007-.2-.028-.385-.028-.582s.021-.384.028-.574a31.351,31.351,0,0,1-4.131.266C8.138,33.412,3.6,31.575,3.6,29.924s4.535-3.491,11.048-3.491a28.953,28.953,0,0,1,5.77.547c0-.009.011-.016.014-.027a14.368,14.368,0,0,1,.942-1.554c-3.088-.677-4.984-1.818-4.984-2.884H15.23v2.766c-.193,0-.387-.011-.579-.011-5.922,0-12.215,1.634-12.215,4.654V34l.085.576c.756,2.65,6.6,4.071,12.13,4.071a31.674,31.674,0,0,0,4.843-.369c-.009-.032-.017-.065-.028-.094-.058-.182-.1-.368-.154-.552-.043-.157-.091-.312-.134-.469M16.393,24.584a7.1,7.1,0,0,0,1.373.841c-.453-.042-.909-.077-1.373-.1Z" transform="translate(-2.436 -2.744)"/>
      <path id="Path_238" data-name="Path 238" d="M33.673,46.14a12.5,12.5,0,1,1,12.5-12.5,12.5,12.5,0,0,1-12.5,12.5m0-23.813A11.311,11.311,0,1,0,44.984,33.637,11.311,11.311,0,0,0,33.673,22.327" transform="translate(-2.719 -2.719)"/>
      <path id="Path_239" data-name="Path 239" d="M37.621,38.031H30.6V36.423h1.553a3.646,3.646,0,0,0,.3-1.281c.013-.392-.028-.96-.028-.96H31V32.94h1.324l-.19-.675a4.339,4.339,0,0,1-.19-1.216,2.472,2.472,0,0,1,.783-1.8,2.918,2.918,0,0,1,2.053-.675,3.245,3.245,0,0,1,2.471.958l-.743,1.255a2.243,2.243,0,0,0-1.527-.675,1.012,1.012,0,0,0-1.106,1.095,4.709,4.709,0,0,0,.229,1.242l.135.486h1.985v1.242H34.34s.04.568.026.96a3.9,3.9,0,0,1-.283,1.282h3.538Z" transform="translate(-2.858 -2.829)"/>
    </g>
  </g>
</svg>
