<svg id="Icons_-_.icon-customer-review" data-name="Icons - .icon-customer-review" xmlns="http://www.w3.org/2000/svg" xmlns:xlink="http://www.w3.org/1999/xlink" width="149" height="149" viewBox="0 0 149 149">
  <defs>
    <clipPath id="clip-path">
      <rect id="Rectangle_516" data-name="Rectangle 516" width="149" height="149" fill="#fff"/>
    </clipPath>
  </defs>
  <g id="Icons_-_.icon-customer-review-2" data-name="Icons - .icon-customer-review" clip-path="url(#clip-path)">
    <g id="Group_581" data-name="Group 581" transform="translate(0 6.984)">
      <path id="Path_253" data-name="Path 253" d="M5.415,80.435A2.328,2.328,0,0,1,5,75.817c9.624-1.751,26.019-5.652,29.036-8.668.669-1.033.391-6.717-.637-11.867a2.328,2.328,0,1,1,4.566-.913c.96,4.8,2.155,13.28-.637,16.072-4.92,4.921-27.1,9.158-31.5,9.957A2.384,2.384,0,0,1,5.415,80.435Z" transform="translate(-3.089 54.595)" fill="#fff"/>
      <path id="Path_254" data-name="Path 254" d="M63.284,80.438a2.387,2.387,0,0,1-.418-.038c-4.4-.8-26.576-5.035-31.5-9.957-2.792-2.791-1.6-11.267-.636-16.07a2.328,2.328,0,1,1,4.566.913c-1.028,5.151-1.308,10.834-.585,11.926,2.965,2.957,19.36,6.858,28.983,8.609a2.328,2.328,0,0,1-.414,4.619Z" transform="translate(32.171 54.593)" fill="#fff"/>
      <path id="Path_255" data-name="Path 255" d="M52.9,104.641a2.328,2.328,0,0,1-.378-4.625c12.241-2.041,16.69-21.3,16.736-21.492,1.285-5.435,2.71-14.386,3.351-19.915a49.7,49.7,0,0,0,0-14.056c-1.667-12.4-13.873-21.4-29.022-21.4s-27.355,9-29.022,21.4a49.685,49.685,0,0,0,0,14.056c.64,5.529,2.066,14.482,3.344,19.887.052.224,4.5,19.481,16.742,21.521a2.328,2.328,0,1,1-.764,4.593c-15.342-2.557-20.313-24.155-20.517-25.073C12.068,74,10.6,64.808,9.947,59.145a54.455,54.455,0,0,1,0-15.21C11.932,29.2,26.079,18.5,43.587,18.5S75.242,29.2,77.224,43.932a54.464,54.464,0,0,1,0,15.211c-.655,5.663-2.121,14.851-3.44,20.425-.2.887-5.166,22.484-20.508,25.041a2.328,2.328,0,0,1-.384.031Z" transform="translate(5.304 9.438)" fill="#fff"/>
      <path id="Path_256" data-name="Path 256" d="M58.7,81a2.33,2.33,0,0,1-2.328-2.328v-16.3H54.043a2.328,2.328,0,0,1,0-4.656H58.7a2.328,2.328,0,0,1,2.328,2.328v13.44L78.106,58.307a2.325,2.325,0,0,1,1.546-.588h25.609a2.33,2.33,0,0,0,2.328-2.328V13.484a2.33,2.33,0,0,0-2.328-2.328H40.074a2.33,2.33,0,0,0-2.328,2.328V32.109a2.328,2.328,0,0,1-4.656,0V13.484A6.992,6.992,0,0,1,40.074,6.5h65.188a6.992,6.992,0,0,1,6.984,6.984V55.391a6.992,6.992,0,0,1-6.984,6.984H80.537L60.245,80.413A2.323,2.323,0,0,1,58.7,81Z" transform="translate(36.754 -6.5)" fill="#fff"/>
    </g>
  </g>
</svg>
