<svg xmlns="http://www.w3.org/2000/svg" xmlns:xlink="http://www.w3.org/1999/xlink" width="45" height="50" viewBox="0 0 45 50" fill="#505050">
  <defs>
    <clipPath id="clip-path">
      <rect id="Rectangle_574" data-name="Rectangle 574" width="45" height="45"/>
    </clipPath>
    <clipPath id="clip-path-2">
      <rect id="Rectangle_584" data-name="Rectangle 584" width="13" height="13"/>
    </clipPath>
  </defs>
  <g id="Group_629" data-name="Group 629" transform="translate(-251 -355)">
    <g id="Icons_-_.icon-basket" data-name="Icons - .icon-basket" transform="translate(251 360)">
      <g id="a" clip-path="url(#clip-path)">
        <g id="Group_628" data-name="Group 628" transform="translate(-0.22 3.647)">
          <path id="Path_527" data-name="Path 527" d="M8.11-10.3H-11.4a1.1,1.1,0,0,1-1.1-1.1,1.1,1.1,0,0,1,1.1-1.1H8.11a1.1,1.1,0,0,1,1.1,1.1A1.1,1.1,0,0,1,8.11-10.3Z" transform="translate(24.239 29.288)"/>
          <path id="Path_528" data-name="Path 528" d="M47.169,13.767H42.991a1.1,1.1,0,0,1,0-2.2h4.178a.294.294,0,0,0,.294-.294V8.491a.294.294,0,0,0-.294-.294H41.6a1.1,1.1,0,0,1,0-2.2h5.57A2.494,2.494,0,0,1,49.66,8.491v2.785a2.494,2.494,0,0,1-2.491,2.491Z" transform="translate(-4.294 5.168)"/>
          <path id="Path_529" data-name="Path 529" d="M2.573-10.3H-11.4a1.1,1.1,0,0,1-1.1-1.1,1.1,1.1,0,0,1,1.1-1.1H2.573a1.1,1.1,0,0,1,1.1,1.1,1.1,1.1,0,0,1-1.1,1.1Z" transform="translate(27.051 23.663)"/>
          <path id="Path_530" data-name="Path 530" d="M-4.831,13.767H-9.009A2.494,2.494,0,0,1-11.5,11.276V8.491A2.494,2.494,0,0,1-9.009,6h5.57a1.1,1.1,0,0,1,1.1,1.1,1.1,1.1,0,0,1-1.1,1.1h-5.57a.294.294,0,0,0-.294.294v2.785a.294.294,0,0,0,.294.294h4.178a1.1,1.1,0,0,1,1.1,1.1,1.1,1.1,0,0,1-1.1,1.1Z" transform="translate(11.5 5.168)"/>
          <path id="Path_531" data-name="Path 531" d="M25.627,34.994H-.229A3.864,3.864,0,0,1-4.065,31.7L-6.489,15.257a1.1,1.1,0,0,1,.927-1.247,1.1,1.1,0,0,1,1.247.927l2.423,16.439A1.676,1.676,0,0,0-.228,32.8H25.6a1.7,1.7,0,0,0,1.7-1.429l2.422-16.432a1.1,1.1,0,1,1,2.174.32L29.467,31.7a3.9,3.9,0,0,1-3.84,3.3Z" transform="translate(9.982 2.74)"/>
          <path id="Path_532" data-name="Path 532" d="M-11.4-2.568a1.1,1.1,0,0,1-1.1-1.1V-11.4a1.1,1.1,0,0,1,1.1-1.1,1.1,1.1,0,0,1,1.1,1.1v7.734A1.1,1.1,0,0,1-11.4-2.568Z" transform="translate(24.239 34.825)"/>
          <path id="Path_533" data-name="Path 533" d="M-11.4-2.568a1.1,1.1,0,0,1-1.1-1.1V-11.4a1.1,1.1,0,0,1,1.1-1.1,1.1,1.1,0,0,1,1.1,1.1v7.734A1.1,1.1,0,0,1-11.4-2.568Z" transform="translate(29.16 34.825)"/>
          <path id="Path_534" data-name="Path 534" d="M-11.4-2.568a1.1,1.1,0,0,1-1.1-1.1V-11.4a1.1,1.1,0,0,1,1.1-1.1,1.1,1.1,0,0,1,1.1,1.1v7.734A1.1,1.1,0,0,1-11.4-2.568Z" transform="translate(34.082 34.825)"/>
          <path id="Path_535" data-name="Path 535" d="M-11.4-2.568a1.1,1.1,0,0,1-1.1-1.1V-11.4a1.1,1.1,0,0,1,1.1-1.1,1.1,1.1,0,0,1,1.1,1.1v7.734A1.1,1.1,0,0,1-11.4-2.568Z" transform="translate(39.004 34.825)"/>
          <path id="Path_536" data-name="Path 536" d="M-11.4-2.568a1.1,1.1,0,0,1-1.1-1.1V-11.4a1.1,1.1,0,0,1,1.1-1.1,1.1,1.1,0,0,1,1.1,1.1v7.734A1.1,1.1,0,0,1-11.4-2.568Z" transform="translate(43.75 34.825)"/>
          <path id="Path_537" data-name="Path 537" d="M-11.4,3.667a1.094,1.094,0,0,1-.522-.132,1.1,1.1,0,0,1-.444-1.489L-4.812-11.93a1.1,1.1,0,0,1,1.489-.444,1.1,1.1,0,0,1,.444,1.489L-10.438,3.091A1.1,1.1,0,0,1-11.4,3.667Z" transform="translate(21.604 12.506)"/>
          <path id="Path_538" data-name="Path 538" d="M-3.843,3.669a1.1,1.1,0,0,1-.967-.576l-7.559-13.975a1.1,1.1,0,0,1,.444-1.489,1.1,1.1,0,0,1,1.489.444L-2.878,2.048A1.1,1.1,0,0,1-2.9,3.133a1.1,1.1,0,0,1-.943.537Z" transform="translate(39.006 12.503)"/>
        </g>
      </g>
    </g>
    <g id="Icons_-_.icon-plus" data-name="Icons - .icon-plus" transform="translate(283 355)">
      <g id="a-2" data-name="a" clip-path="url(#clip-path-2)">
        <path id="Path_551" data-name="Path 551" d="M10.563,36.469H6.906V32.813A.813.813,0,0,0,6.094,32H5.281a.813.813,0,0,0-.812.813v3.656H.813A.813.813,0,0,0,0,37.281v.813a.813.813,0,0,0,.813.813H4.469v3.656a.812.812,0,0,0,.813.813h.813a.812.812,0,0,0,.813-.812V38.906h3.656a.812.812,0,0,0,.813-.812v-.812A.813.813,0,0,0,10.563,36.469Z" transform="translate(0.813 -31.188)"/>
      </g>
    </g>
  </g>
</svg>
