<svg xmlns="http://www.w3.org/2000/svg" xmlns:xlink="http://www.w3.org/1999/xlink" width="45" height="45" viewBox="0 0 45 45" fill="#fff">
  <defs>
    <clipPath id="clip-path">
      <rect id="Rectangle_515" data-name="Rectangle 515" width="45" height="45"/>
    </clipPath>
    <clipPath id="clip-path-2">
      <rect id="Rectangle_514" data-name="Rectangle 514" width="45" height="44.186" fill="none"/>
    </clipPath>
  </defs>
  <g id="Icons_-_.icon-q-and-a" data-name="Icons - .icon-q-and-a" clip-path="url(#clip-path)">
    <g id="Group_580" data-name="Group 580" transform="translate(0 0.439)">
      <g id="Group_579" data-name="Group 579" clip-path="url(#clip-path-2)">
        <g id="Group_578" data-name="Group 578" transform="translate(0 0)">
          <path id="Path_251" data-name="Path 251" d="M4.408,40.246A1.408,1.408,0,0,1,3,38.839V7.448A3.52,3.52,0,0,1,6.516,3.932H36.75a3.52,3.52,0,0,1,3.516,3.516V28.541a3.52,3.52,0,0,1-3.516,3.516H13.169L5.4,39.833A1.4,1.4,0,0,1,4.408,40.246ZM6.516,5.338A2.112,2.112,0,0,0,4.406,7.448V38.839l7.973-7.982a.7.7,0,0,1,.5-.206H36.75a2.112,2.112,0,0,0,2.109-2.109V7.448A2.112,2.112,0,0,0,36.75,5.338Z" transform="translate(-3 -3.932)"/>
          <path id="Path_252" data-name="Path 252" d="M53.419,54.649a1.4,1.4,0,0,1-1.009-.43l-5.6-5.788h-17.3A3.52,3.52,0,0,1,26,44.916V41.4h1.406v3.516a2.112,2.112,0,0,0,2.109,2.109H47.11a.7.7,0,0,1,.505.214l5.806,6V29.448a2.112,2.112,0,0,0-2.109-2.109H49.906V25.932h1.406a3.52,3.52,0,0,1,3.516,3.516V53.242A1.41,1.41,0,0,1,53.419,54.649Z" transform="translate(-9.828 -10.463)"/>
        </g>
      </g>
    </g>
  </g>
</svg>
