<svg id="Layer_1" data-name="Layer 1" xmlns="http://www.w3.org/2000/svg" viewBox="0 0 70 70"><defs><style>.cls-1{fill:none;}.cls-1,.cls-2{stroke:#ffffff;stroke-linecap:round;stroke-linejoin:round;stroke-width:2px;}.cls-2{fill:#ffffff;}.cls-3{fill:#196491;}</style></defs><title>Icons</title><path class="cls-1" d="M17.39346,5.27588h19.162a2,2,0,0,1,2,2v5.72068a0,0,0,0,1,0,0h-23.162a0,0,0,0,1,0,0V7.27588A2,2,0,0,1,17.39346,5.27588Z"/><polyline class="cls-1" points="38.816 10.423 48.85 10.423 48.85 64.468 5.099 64.468 5.099 10.423 15.133 10.423"/><line class="cls-1" x1="13.61849" y1="24.90303" x2="39.27394" y2="24.90303"/><line class="cls-1" x1="13.61849" y1="32.90075" x2="39.27394" y2="32.90075"/><line class="cls-1" x1="13.61849" y1="40.89848" x2="39.27394" y2="40.89848"/><line class="cls-1" x1="13.61849" y1="48.8962" x2="39.27394" y2="48.8962"/><circle class="cls-2" cx="47.39778" cy="47.44177" r="12.36405"/><path class="cls-1" d="M63.2794,66.23732l-5.82773-5.82718a2.06045,2.06045,0,0,1,0-2.91448h0a2.05855,2.05855,0,0,1,2.91394,0l5.82772,5.82773a2.05977,2.05977,0,0,1,0,2.91393h0A2.05854,2.05854,0,0,1,63.2794,66.23732Z"/><line class="cls-1" x1="57.45428" y1="57.49827" x2="56.13559" y2="56.17958"/><path class="cls-3" d="M52.36541,42.71553a1.26822,1.26822,0,0,0-1.01037-.1033,2.39307,2.39307,0,0,0-1.09831.66506,9.03664,9.03664,0,0,0-1.10238,1.363q-.76422,1.11917-1.50924,2.25142c-.298.45082-.58249.91053-.8742,1.3655-.1637.25532-.33142.50808-.49408.76406-.09525.14989-.1809.30592-.277.45522a.15387.15387,0,0,1-.24425.05478,1.93464,1.93464,0,0,1-.28408-.22835c-.2409-.26363-.47384-.53456-.70778-.8045l-.00048-.00059c-.16184-.19763-.66817-.81343-.83253-1.00895a1.01559,1.01559,0,0,0-.68-.364,1.05725,1.05725,0,0,0-1.09384.55061,1.04005,1.04005,0,0,0,.07481,1.18174c.34492.43531.70873.85565,1.06415,1.28264.5048.60645,1.00669,1.21536,1.51553,1.8184a.95022.95022,0,0,0,.71909.36988,4.54367,4.54367,0,0,0,.46346-.027A1.56086,1.56086,0,0,0,47.244,51.519c.25858-.41844.47555-.86285.73891-1.278q.806-1.27056,1.64517-2.5199c.35373-.5248.73989-1.0277,1.11007-1.54146a17.33133,17.33133,0,0,1,1.83814-2.23874.746.746,0,0,0,.14958-.21787A.82248.82248,0,0,0,52.36541,42.71553Z"/></svg>