<?xml version="1.0" encoding="utf-8"?>
<!-- Generator: Adobe Illustrator 22.1.0, SVG Export Plug-In . SVG Version: 6.00 Build 0)  -->
<svg version="1.1" id="Layer_1" xmlns="http://www.w3.org/2000/svg" xmlns:xlink="http://www.w3.org/1999/xlink" x="0px" y="0px"
	 viewBox="0 0 30 30" style="enable-background:new 0 0 30 30;" xml:space="preserve" width="30" height="30">
<style type="text/css">
	.st0{fill:#61A60E;}
	.st1{fill:#FFFFFF;}
</style>
<path class="st0" d="M15,30L15,30C6.7,30,0,23.3,0,15v0C0,6.7,6.7,0,15,0h0c8.3,0,15,6.7,15,15v0C30,23.3,23.3,30,15,30z"/>
<path class="st1" d="M7.8,13.8c0,0,0.1,0.1,0.1,0.1c1.6,1.3,3.2,2.7,4.8,4c0.1,0.1,0.2,0.1,0.3,0c2.4-2.8,4.7-5.7,7.1-8.5
	c0.6-0.7,1.1-1.3,1.7-2c0.1-0.1,0.1-0.1,0.2,0c0.8,0.6,1.5,1.3,2.3,1.9c0.1,0.1,0.1,0.2,0,0.3c-1.6,1.9-3.2,3.8-4.8,5.7
	c-2,2.4-4,4.8-6,7.2c-0.2,0.2-0.2,0.2-0.4,0c-2.4-2-4.8-4-7.2-6c-0.1,0-0.1-0.1-0.2-0.1c-0.1,0-0.1-0.1,0-0.2
	C6.4,15.4,7,14.6,7.8,13.8C7.7,13.8,7.7,13.8,7.8,13.8z"/>
</svg>
